<svg version="1" xmlns="http://www.w3.org/2000/svg" width="682.667" height="682.667" viewBox="0 0 512.000000 512.000000"><path d="M0 256v256h512V0H0v256zm365.8-66c.4 152.5.1 157.2-8.5 182.9-15.2 45.5-48 70.7-99.2 76.2-39.4 4.2-70.9-6.1-95.9-31.3-11.8-12-16.2-18.2-16.2-23.1 0-3.7 1.1-5 26.6-31.8 14.6-15.3 27-27.9 27.4-27.9.4 0 2.4 2.1 4.4 4.7 7.6 9.8 18.9 20.3 25.3 23.5 5.4 2.6 7 3 12.5 2.6 10.2-.6 13.5-2.9 18.6-12.9 2.9-5.6 4.6-10.6 5.2-14.9.6-3.7 1-63.7 1-140.6 0-73.7.3-134.4.7-134.7.3-.4 22.5-.6 49.2-.5l48.6.3.3 127.5z"/></svg>