<svg id="Layer_1" data-name="Layer 1" xmlns="http://www.w3.org/2000/svg" width="293.21" height="517.116" viewBox="0 0 293.21 517.116"><title>safari-pinned-tab</title><path d="M487.734,253.333c.533,203.334.133,209.6-11.334,243.867-20.266,60.667-64,94.267-132.267,101.6-52.533,5.6-94.533-8.133-127.866-41.733-15.734-16-21.6-24.267-21.6-30.8,0-4.933,1.466-6.667,35.466-42.4,19.467-20.4,36-37.2,36.534-37.2s3.2,2.8,5.866,6.267C282.667,466,297.733,480,306.267,484.267c7.2,3.467,9.333,4,16.666,3.467,13.6-.8,18-3.867,24.8-17.2,3.867-7.467,6.134-14.134,6.934-19.867.8-4.933,1.333-84.933,1.333-187.467,0-98.267.4-179.2.934-179.6.4-.533,30-.8,65.6-.667l64.8.4.4,170Z" transform="translate(-194.667 -82.899)"/></svg>